<svg width="26" height="97" viewBox="0 0 26 97" fill="none" xmlns="http://www.w3.org/2000/svg">
<path d="M6.625 32.4064H5.03125C3.76318 32.4064 2.54705 32.9151 1.6504 33.8205C0.753737 34.726 0.25 35.954 0.25 37.2345V46.8908C0.25 46.9342 3.4375 88.8407 3.4375 88.8407C3.54992 90.928 4.42862 92.8981 5.90207 94.3663C7.37551 95.8346 9.33794 96.6956 11.4062 96.7814H14.5938C16.6596 96.6971 18.6202 95.8388 20.0935 94.3741C21.5667 92.9093 22.4469 90.9429 22.5625 88.8584C22.5625 88.8584 25.75 46.9342 25.75 46.8908V37.2345C25.75 35.954 25.2463 34.726 24.3496 33.8205C23.4529 32.9151 22.2368 32.4064 20.9688 32.4064H19.375C18.7248 32.4064 17.7812 31.1527 17.7812 29.1876C17.7812 27.2226 18.7248 25.9689 19.375 25.9689H22.5625C22.918 25.9688 23.2633 25.8487 23.5434 25.6276C23.8235 25.4066 24.0224 25.0973 24.1084 24.749C26.2074 16.274 25.6592 9.60799 22.4812 4.9408C21.0842 2.78327 19.0284 1.14469 16.6258 0.273612C16.4828 0.235326 16.3354 0.216917 16.1875 0.218894H9.8125C9.66433 0.219014 9.51687 0.23959 9.37422 0.28005C6.97159 1.15113 4.91583 2.7897 3.51878 4.94724C0.340845 9.61443 -0.207405 16.2805 1.89156 24.7554C1.97881 25.1026 2.17822 25.4104 2.45823 25.6302C2.73824 25.85 3.08285 25.9692 3.4375 25.9689H6.625C7.27525 25.9689 8.21875 27.2226 8.21875 29.1876C8.21875 31.1527 7.27525 32.4064 6.625 32.4064ZM19.375 88.6283C19.3124 89.8985 18.7916 91.1017 17.9107 92.0108C17.0299 92.9198 15.85 93.4718 14.5938 93.5626H11.4062C10.1475 93.4704 8.96586 92.9155 8.08483 92.003C7.20379 91.0905 6.68444 89.8836 6.625 88.6106L3.565 48.5001H22.435L19.375 88.6283ZM22.5625 45.2814H3.4375V42.0626H22.5625V45.2814ZM4.69816 22.7501C1.34013 7.47718 8.77816 3.93172 10.0739 3.43764H15.9229C17.1772 3.92046 24.6487 7.51258 21.3003 22.7501H4.69816ZM11.4062 29.1876C11.4144 28.0837 11.2036 26.9893 10.7863 25.9689H15.2137C14.7964 26.9893 14.5856 28.0837 14.5938 29.1876C14.5938 32.7975 16.6943 35.6251 19.375 35.6251H20.9688C21.3914 35.6251 21.7968 35.7947 22.0957 36.0965C22.3946 36.3983 22.5625 36.8077 22.5625 37.2345V38.8439H3.4375V37.2345C3.4375 36.8077 3.60541 36.3983 3.9043 36.0965C4.20318 35.7947 4.60856 35.6251 5.03125 35.6251H6.625C9.30569 35.6251 11.4062 32.7975 11.4062 29.1876Z" fill="white"/>
<path d="M13 71.0314C14.2681 71.0314 15.4842 70.5227 16.3809 69.6172C17.2775 68.7118 17.7812 67.4838 17.7812 66.2033V56.547C17.7812 55.2665 17.2775 54.0385 16.3809 53.133C15.4842 52.2276 14.2681 51.7189 13 51.7189C11.7319 51.7189 10.5158 52.2276 9.61914 53.133C8.72249 54.0385 8.21875 55.2665 8.21875 56.547V66.2033C8.21875 67.4838 8.72249 68.7118 9.61914 69.6172C10.5158 70.5227 11.7319 71.0314 13 71.0314ZM11.4062 56.547C11.4062 56.1202 11.5742 55.7108 11.873 55.409C12.1719 55.1072 12.5773 54.9376 13 54.9376C13.4227 54.9376 13.8281 55.1072 14.127 55.409C14.4258 55.7108 14.5937 56.1202 14.5937 56.547V66.2033C14.5937 66.6301 14.4258 67.0394 14.127 67.3413C13.8281 67.6431 13.4227 67.8126 13 67.8126C12.5773 67.8126 12.1719 67.6431 11.873 67.3413C11.5742 67.0394 11.4062 66.6301 11.4062 66.2033V56.547ZM11.4062 74.2501H14.5937V77.4689H11.4062V74.2501ZM11.4062 6.65638L10.2795 5.51855C8.69524 7.19522 7.53901 9.23611 6.91064 11.465C6.28226 13.6938 6.20064 16.0436 6.67281 18.3115L9.76469 17.5325C9.42037 15.8033 9.4924 14.0159 9.97471 12.3207C10.457 10.6254 11.3355 9.07196 12.5362 7.79099L11.4062 6.65638Z" fill="white"/>
</svg>
