<svg width="413" height="512" viewBox="0 0 413 512" fill="none" xmlns="http://www.w3.org/2000/svg">
<path d="M412.233 244.839C410.874 240.669 407.015 237.867 402.629 237.867H362.739C358.685 237.867 355.4 241.152 355.4 245.206C355.4 249.26 358.685 252.545 362.739 252.545H388.576L377.015 260.972C375.318 262.208 373.31 262.862 371.211 262.862H41.5222C39.4232 262.862 37.4152 262.208 35.7192 260.972L24.1572 252.544H328.591C332.645 252.544 335.93 249.259 335.93 245.205C335.93 241.151 332.645 237.866 328.591 237.866H256.542C255.648 237.4 254.653 236.879 253.55 236.302C232.973 225.529 221.083 219.726 213.874 217.11C213.875 217.11 213.876 217.111 213.878 217.111V189.281C215.561 189.022 217.236 188.699 218.889 188.265C230.286 185.269 246.625 178.194 259.745 161.5C274.908 142.208 268.482 118.255 262.268 95.09C259.193 83.63 256.29 72.807 255.993 62.882C255.322 40.431 261.675 21.354 264.438 14.195C265.677 10.982 265.255 7.37 263.308 4.532C261.36 1.694 258.143 0 254.701 0H158.031C154.589 0 151.371 1.694 149.425 4.532C147.478 7.37 147.056 10.982 148.295 14.194C150.952 21.082 157.098 39.45 156.777 61.202C156.717 65.255 159.954 68.589 164.007 68.648C164.044 68.649 164.081 68.649 164.117 68.649C168.12 68.649 171.394 65.434 171.453 61.418C171.543 55.337 171.197 49.52 170.571 44.073H242.164C241.473 50.09 241.116 56.545 241.318 63.32C241.666 74.956 244.93 87.125 248.088 98.894C253.61 119.476 258.825 138.915 248.203 152.43C237.599 165.922 224.378 171.644 215.155 174.069C209.406 175.582 203.327 175.582 197.577 174.069C188.353 171.645 175.133 165.922 164.528 152.43C153.905 138.916 159.12 119.476 164.642 98.895L165.193 96.839C166.24 92.923 163.915 88.9 160 87.852C156.086 86.807 152.061 89.131 151.013 93.045L150.464 95.092C144.25 118.257 137.823 142.21 152.987 161.501C166.108 178.195 182.447 185.27 193.844 188.266C195.497 188.7 197.172 189.023 198.856 189.282C198.855 189.282 198.855 189.282 198.854 189.282V217.251C192.34 219.682 180.063 225.226 156.197 237.867H10.1042C5.71822 237.867 1.85922 240.669 0.500223 244.839C-0.857777 249.009 0.611223 253.547 4.15422 256.129L27.0732 272.835C31.2992 275.914 36.2952 277.541 41.5222 277.541H88.1642C88.8012 280.987 90.8542 284.11 94.0412 286.078C121.78 303.215 172.117 336.592 197.562 367.576C207.938 380.212 216.098 391.74 223.989 402.888C242.161 428.562 257.994 450.909 291.211 471.684L289.173 476.756C287.755 480.286 287.799 484.156 289.297 487.653C290.796 491.15 293.569 493.85 297.102 495.257L336.633 510.996C338.347 511.678 340.118 512.001 341.862 512.001C347.498 512 352.85 508.625 355.074 503.09L391.223 413.114C392.642 409.583 392.597 405.714 391.099 402.217C389.601 398.72 386.828 396.02 383.295 394.613L343.764 378.874C336.504 375.985 328.233 379.532 325.323 386.78L323.841 390.468L317.925 387.944C315.323 386.834 313.636 384.261 313.629 381.389C313.6 370.41 311.949 354.29 304.247 339.847C295.214 322.909 296.454 305.881 307.741 291.9C309.731 289.436 311.606 287.179 313.316 285.193C315.229 282.97 316.322 280.3 316.556 277.541H371.21C376.437 277.541 381.433 275.914 385.66 272.834L408.577 256.13C412.121 253.547 413.59 249.01 412.233 244.839ZM244.619 29.395H168.107C166.855 23.719 165.411 18.744 164.057 14.679H248.673C247.314 18.757 245.87 23.728 244.619 29.395ZM206.456 230.088C208.969 230.649 214.954 233.253 224.337 237.866H188.59C197.347 233.631 203.947 230.729 206.456 230.088ZM269.613 277.539C263.956 285.466 258.247 296.878 257.224 311.457C256.77 317.922 254.344 319.899 252.558 320.824C251.644 321.297 250.579 321.64 249.384 321.86L214.732 277.539H269.613ZM202.747 286.041L227.809 318.098C225.341 317.15 222.794 316.045 220.203 314.791C220.167 314.773 220.13 314.756 220.094 314.738C219.612 314.504 219.128 314.265 218.644 314.021C218.488 313.943 218.332 313.862 218.177 313.783C217.554 313.466 216.929 313.139 216.303 312.806C215.923 312.603 215.542 312.401 215.161 312.192C214.89 312.044 214.619 311.892 214.348 311.741C213.924 311.505 213.5 311.266 213.076 311.022C212.85 310.892 212.624 310.763 212.397 310.632C211.762 310.262 211.126 309.888 210.491 309.503C210.475 309.493 210.458 309.484 210.442 309.474C210.4 309.449 210.356 309.423 210.315 309.398C209.523 308.918 208.706 308.427 207.877 307.931C207.61 307.771 207.344 307.612 207.075 307.451C206.225 306.943 205.357 306.428 204.474 305.907C204.3 305.804 204.124 305.701 203.949 305.598C203.585 305.384 203.225 305.171 202.857 304.954L187.636 277.66C193.59 278.278 199.005 281.256 202.747 286.041ZM172.012 277.541C172.194 279.32 172.735 281.076 173.648 282.713L178.262 290.989C171.2 287.08 164.395 283.38 158.544 280.23C156.835 279.31 155.053 278.416 153.23 277.541H172.012ZM338.77 392.683L377.43 408.075L341.629 497.184L302.969 481.792L338.77 392.683ZM296.321 282.678C281.321 301.259 279.489 324.613 291.295 346.753C297.579 358.535 298.927 372.112 298.951 381.426C298.974 390.171 304.161 398.028 312.165 401.443L318.368 404.089L296.772 457.84C267.576 439.06 253.478 419.142 235.969 394.407C227.928 383.048 219.615 371.302 208.904 358.26C184.415 328.438 138.999 297.112 109.595 278.494C124.052 281.356 139.743 286.778 151.585 293.153C164.444 300.077 181.926 309.658 196.515 318.254C196.77 318.404 197.019 318.552 197.271 318.701C197.941 319.097 198.603 319.49 199.259 319.881C199.585 320.075 199.911 320.27 200.232 320.462C201.11 320.987 201.98 321.51 202.828 322.024C203.141 322.214 203.483 322.418 203.837 322.629C209.886 326.227 218.508 330.719 228.004 333.715C228.212 333.781 228.421 333.846 228.63 333.911C228.949 334.009 229.268 334.106 229.588 334.201C230.07 334.344 230.553 334.481 231.038 334.614C231.138 334.641 231.236 334.672 231.335 334.699C231.353 334.704 231.371 334.708 231.389 334.713C232.024 334.884 232.661 335.046 233.3 335.2C233.476 335.243 233.65 335.281 233.826 335.322C234.273 335.426 234.721 335.526 235.169 335.621C235.403 335.671 235.637 335.719 235.869 335.766C236.243 335.841 236.616 335.91 236.99 335.978C237.251 336.026 237.515 336.075 237.773 336.119C238.057 336.167 238.341 336.207 238.625 336.25C239.347 336.36 240.059 336.455 240.761 336.534C240.869 336.546 240.976 336.56 241.084 336.572C241.539 336.62 241.987 336.658 242.434 336.692C242.534 336.7 242.634 336.708 242.733 336.715C243.201 336.748 243.663 336.773 244.121 336.792C244.187 336.795 244.253 336.797 244.319 336.799C244.811 336.816 245.298 336.826 245.779 336.827C245.783 336.827 245.787 336.827 245.792 336.827C245.887 336.827 245.984 336.827 246.078 336.826C246.085 336.826 246.092 336.824 246.099 336.824C251.132 336.786 255.551 335.804 259.305 333.859C264.54 331.148 270.969 325.239 271.864 312.487C273.188 293.634 284.517 281.625 289.043 277.541H300.552C299.21 279.134 297.793 280.854 296.321 282.678Z" fill="white"/>
</svg>
