<svg width="120" height="65" viewBox="0 0 120 65" fill="none" xmlns="http://www.w3.org/2000/svg">
<path d="M83.0562 46.5639C82.509 45.0153 81.4969 43.6766 80.1604 42.7334C78.824 41.7902 77.2293 41.2893 75.5975 41.3001C75.0238 41.3001 74.4075 41.3857 73.8125 41.5313C71.135 36.6892 65.95 33.4033 60 33.4033C54.05 33.4033 48.865 36.6892 46.1875 41.5099C42.0225 40.5851 38.1763 42.9848 36.9225 46.5425L33.2463 45.7847V50.081L36.7525 50.8173C37.5812 54.1867 40.6838 56.7126 44.4025 56.7126C44.9975 56.7126 45.5925 56.6291 46.1875 56.4814C48.865 61.3257 54.05 64.6094 60 64.6094C65.95 64.6094 71.135 61.3257 73.8125 56.4814C74.4075 56.6291 75.0238 56.7126 75.5975 56.7126C79.3163 56.7126 82.4187 54.1867 83.2475 50.8173L86.7538 50.081V45.7847L83.0562 46.5639ZM44.6575 52.502C42.4475 52.6925 40.7475 51.0292 40.7475 49.0064C40.7475 47.0691 42.3838 45.5107 44.4025 45.5107C44.4875 45.5107 44.5725 45.5535 44.6575 45.5535C44.4025 46.6688 44.2537 47.8076 44.2537 49.0064C44.2537 50.2051 44.4025 51.3653 44.6575 52.502ZM75.3425 52.4806C75.5975 51.3653 75.7462 50.2072 75.7462 49.0064C75.7462 47.8055 75.5975 46.6495 75.3425 45.5321C77.4888 45.3652 79.2525 46.9856 79.2525 49.0064C79.2525 51.0078 77.4888 52.6283 75.3425 52.4806ZM112.162 27.4995C112.494 27.187 112.853 26.8744 113.125 26.5619C114.897 24.5797 115.934 22.5482 116.217 20.5104C116.272 20.1165 116.312 19.7269 116.312 19.318V18.1621C111.181 8.04764 87.8864 0.390625 60 0.390625C32.1136 0.390625 8.8215 8.04764 3.6875 18.1578V19.318C3.6875 19.7269 3.72788 20.1186 3.78313 20.5104C4.06575 22.5482 5.10062 24.5775 6.85375 26.5384C7.13212 26.8595 7.49763 27.1784 7.83763 27.4974C17.075 19.7162 37.373 14.6151 60 14.6151C82.6291 14.6151 102.931 19.7162 112.162 27.4995Z" fill="white"/>
<path d="M4.45675 28.6208C2.28925 26.1955 0.99725 23.6075 0.62325 20.9424L0.619 20.8975H0.5V32.414C0.5 40.6062 11.8517 49.0852 29.4191 54.0172C29.6529 54.0343 29.7804 53.9958 29.8675 53.9316C29.9291 53.8884 29.9793 53.8307 30.0137 53.7636C30.0481 53.6964 30.0658 53.6218 30.0651 53.5463V41.4838C30.0629 41.3792 30.0271 41.278 29.9631 41.1955C29.8992 41.1129 29.8105 41.0534 29.7103 41.0258L29.7039 41.0236C22.5915 39.0393 9.85425 34.788 4.45675 28.6208ZM119.5 32.414V20.8975H119.381L119.375 20.9446C119.003 23.6075 117.706 26.1976 115.522 28.6444C110.141 34.788 97.4106 39.0371 90.2982 41.0215C90.1964 41.049 90.1061 41.1088 90.0406 41.1921C89.9752 41.2754 89.9381 41.3777 89.9349 41.4838V53.5463C89.9349 53.7004 90.0008 53.8331 90.1304 53.9294C90.2229 53.9975 90.3345 54.0342 90.4491 54.0343C108.152 49.0852 119.5 40.6062 119.5 32.414Z" fill="white"/>
</svg>
