<svg width="683" height="683" viewBox="0 0 683 683" fill="none" xmlns="http://www.w3.org/2000/svg">
<g clip-path="url(#clip0_109_211)">
<path d="M646.286 610.775V182.942C646.286 126.567 609.859 77.2238 556.781 60.328V39.1926C556.781 17.5781 539.197 0 517.588 0C495.979 0 478.395 17.5781 478.395 39.1926V60.328C425.323 77.2238 388.896 126.567 388.896 182.942V228.38C388.896 233.921 393.385 238.411 398.922 238.411C404.463 238.411 408.953 233.921 408.953 228.38V182.942C408.953 133.12 442.646 89.8071 490.885 77.6196C495.338 76.4946 498.458 72.4894 498.458 67.8957V39.1926C498.458 28.6406 507.041 20.0573 517.588 20.0573C528.14 20.0573 536.723 28.6406 536.723 39.1926V67.8957C536.723 72.4894 539.843 76.4946 544.296 77.6196C592.536 89.8071 626.223 133.12 626.223 182.942V610.759H408.953V268.499C408.953 262.958 404.463 258.468 398.922 258.468C393.385 258.468 388.896 262.958 388.896 268.499V610.775C369.286 611.03 353.417 627.046 353.417 646.712C353.417 666.54 369.541 682.665 389.37 682.665H645.812C665.635 682.665 681.765 666.54 681.765 646.712C681.765 627.046 665.89 611.03 646.286 610.775ZM645.812 662.608H389.37C380.604 662.608 373.474 655.478 373.474 646.712C373.474 637.947 380.604 630.822 389.37 630.822H645.812C654.572 630.822 661.702 637.947 661.702 646.712C661.702 655.478 654.572 662.608 645.812 662.608Z" fill="white"/>
<path d="M345.573 113.943C342.422 112.167 338.547 112.229 335.453 114.104L299.328 136.01L263.198 114.104C260.005 112.167 255.995 112.167 252.797 114.104L216.672 136.01L180.542 114.104C177.349 112.167 173.339 112.167 170.146 114.104L134.016 136.01L97.8857 114.104C94.693 112.167 90.6826 112.167 87.4899 114.104L51.3598 136.01L15.2296 114.104C12.1359 112.229 8.2661 112.167 5.10985 113.943C1.95361 115.719 0.000488281 119.057 0.000488281 122.682V243.302C0.000488281 248.843 4.49527 253.333 10.0317 253.333C15.5734 253.333 20.063 248.843 20.063 243.302V185.64H330.625V496.202H20.063V283.421C20.063 277.885 15.5682 273.395 10.0317 273.395C4.49006 273.395 0.000488281 277.885 0.000488281 283.421V559.16C0.000488281 562.785 1.95361 566.124 5.10985 567.9C8.2661 569.681 12.1359 569.619 15.2296 567.739L51.3598 545.832L87.4847 567.739C90.6826 569.676 94.6878 569.676 97.8857 567.739L134.011 545.832L170.141 567.739C171.74 568.707 173.537 569.192 175.339 569.192C177.141 569.192 178.943 568.707 180.542 567.739L216.667 545.832L252.797 567.739C255.99 569.676 260 569.676 263.198 567.739L299.323 545.832L335.453 567.739C338.547 569.619 342.417 569.676 345.573 567.9C348.729 566.124 350.682 562.785 350.682 559.16V122.682C350.682 119.057 348.729 115.719 345.573 113.943ZM20.063 165.583V140.489L46.1567 156.317C49.3546 158.255 53.365 158.255 56.5577 156.317L92.6878 134.411L128.813 156.317C132.011 158.255 136.016 158.255 139.214 156.317L175.339 134.411L211.469 156.317C214.662 158.255 218.672 158.255 221.87 156.317L257.995 134.411L294.125 156.317C297.318 158.255 301.328 158.255 304.521 156.317L330.62 140.489V165.583H20.063ZM330.625 541.353L304.526 525.525C301.328 523.588 297.318 523.588 294.125 525.525L258 547.436L221.87 525.525C220.271 524.556 218.469 524.072 216.672 524.072C214.87 524.072 213.068 524.556 211.469 525.525L175.344 547.436L139.214 525.525C136.021 523.593 132.011 523.593 128.813 525.525L92.6878 547.436L56.5577 525.525C53.365 523.588 49.3546 523.588 46.1619 525.525L20.063 541.353V516.265H330.625V541.353Z" fill="white"/>
<path d="M308.839 340.921C308.839 267.312 248.953 207.427 175.344 207.427C101.73 207.427 41.8442 267.312 41.8442 340.921C41.8442 414.536 101.73 474.421 175.344 474.421C248.953 474.421 308.839 414.536 308.839 340.921ZM61.9067 340.921C61.9067 278.374 112.792 227.484 175.344 227.484C237.891 227.484 288.781 278.374 288.781 340.921C288.781 403.473 237.891 454.358 175.344 454.358C112.792 454.358 61.9067 403.473 61.9067 340.921Z" fill="white"/>
<path d="M222.136 421.192C226.922 418.4 228.532 412.26 225.74 407.473C222.943 402.692 216.802 401.083 212.021 403.874C200.938 410.343 188.256 413.765 175.344 413.765C135.178 413.765 102.501 381.088 102.501 340.921C102.501 300.755 135.178 268.078 175.344 268.078C215.506 268.078 248.183 300.755 248.183 340.921C248.183 353.932 244.714 366.697 238.151 377.838C235.339 382.614 236.927 388.76 241.703 391.572C246.474 394.385 252.62 392.796 255.433 388.02C263.813 373.801 268.245 357.51 268.245 340.921C268.245 289.692 226.568 248.02 175.344 248.02C124.115 248.02 82.4434 289.692 82.4434 340.921C82.4434 392.15 124.115 433.822 175.344 433.822C191.808 433.822 207.99 429.458 222.136 421.192Z" fill="white"/>
</g>
<defs>
<clipPath id="clip0_109_211">
<rect width="682.667" height="682.667" fill="white"/>
</clipPath>
</defs>
</svg>
