<svg width="111" height="104" viewBox="0 0 111 104" fill="none" xmlns="http://www.w3.org/2000/svg">
<path fill-rule="evenodd" clip-rule="evenodd" d="M77.6485 39.4476C59.2705 39.4476 44.3485 53.9108 44.3485 71.7238C44.3485 89.5385 59.2705 104 77.6485 104C96.0283 104 110.949 89.5385 110.949 71.7238C110.949 53.9108 96.0283 39.4476 77.6485 39.4476ZM0 50.2063V87.6691C0 93.5769 4.94083 98.3659 11.0361 98.3659H40.6491C42.6915 98.3659 44.3485 96.7581 44.3485 94.7785C44.3485 92.7989 42.6915 91.1928 40.6491 91.1928C40.6491 91.1928 21.8093 91.1928 11.0361 91.1928C9.02741 91.1928 7.40059 89.616 7.40059 87.6691V50.2063C7.40059 48.2284 5.74181 46.6206 3.69941 46.6206C1.65878 46.6206 0 48.2284 0 50.2063ZM77.6485 46.6206C91.9435 46.6206 103.55 57.87 103.55 71.7238C103.55 85.5793 91.9435 96.8287 77.6485 96.8287C63.3553 96.8287 51.7491 85.5793 51.7491 71.7238C51.7491 57.87 63.3553 46.6206 77.6485 46.6206ZM73.9491 57.3346V71.7238C73.9491 73.082 74.7412 74.3248 75.995 74.9325L87.8196 80.663C89.6454 81.5478 91.8707 80.83 92.7836 79.0587C93.6964 77.2891 92.9558 75.1321 91.1283 74.2474L81.3497 69.5083V57.3346C81.3497 55.355 79.6909 53.7472 77.6485 53.7472C75.6079 53.7472 73.9491 55.355 73.9491 57.3346ZM20.2997 75.3112H31.3997C33.4403 75.3112 35.0991 73.7034 35.0991 71.7238C35.0991 69.7459 33.4403 68.1381 31.3997 68.1381H20.2997C18.2573 68.1381 16.5985 69.7459 16.5985 71.7238C16.5985 73.7034 18.2573 75.3112 20.2997 75.3112ZM20.2997 64.5524H31.3997C33.4403 64.5524 35.0991 62.9447 35.0991 60.965C35.0991 58.9872 33.4403 57.3794 31.3997 57.3794H20.2997C18.2573 57.3794 16.5985 58.9872 16.5985 60.965C16.5985 62.9447 18.2573 64.5524 20.2997 64.5524ZM20.2997 53.7937H31.3997C33.4403 53.7937 35.0991 52.1859 35.0991 50.2063C35.0991 48.2284 33.4403 46.6206 31.3997 46.6206H20.2997C18.2573 46.6206 16.5985 48.2284 16.5985 50.2063C16.5985 52.1859 18.2573 53.7937 20.2997 53.7937ZM51.8006 10.7587H29.6006V3.58567C29.6006 1.60607 27.9418 0 25.8994 0C23.8588 0 22.2 1.60607 22.2 3.58567V10.7587H11.0361C4.94083 10.7587 0 15.5477 0 21.4538V35.8619C0 37.8415 1.65878 39.4476 3.69941 39.4476C5.74181 39.4476 7.40059 37.8415 7.40059 35.8619V32.2762H103.599V39.5595C103.599 41.5391 105.258 43.1469 107.301 43.1469C109.343 43.1469 111 41.5391 111 39.5595V21.4538C111 18.6169 109.837 15.8971 107.768 13.8917C105.699 11.8845 102.893 10.7587 99.9657 10.7587H88.8V3.58567C88.8 1.60607 87.143 0 85.1006 0C83.0582 0 81.3994 1.60607 81.3994 3.58567V10.7587H59.1994V3.58567C59.1994 1.60607 57.5424 0 55.5 0C53.4576 0 51.8006 1.60607 51.8006 3.58567V10.7587ZM103.599 25.1032V21.4538C103.599 20.5191 103.218 19.6239 102.536 18.9629C101.854 18.3019 100.93 17.9301 99.9657 17.9301H88.8V25.1032H103.599ZM22.2 17.9301H11.0343C9.02741 17.9301 7.40059 19.5086 7.40059 21.4538V25.1032H22.2V17.9301ZM81.3994 17.9301H29.6006V25.1032H81.3994V17.9301Z" fill="black"/>
</svg>
