<svg width="476" height="476" viewBox="0 0 476 476" fill="none" xmlns="http://www.w3.org/2000/svg">
<path d="M457.516 272.62C456.1 245.289 446.352 219.046 429.582 197.417C412.813 175.789 389.825 159.812 363.708 151.632V122.832C363.708 120.975 362.97 119.195 361.658 117.882C360.345 116.57 358.565 115.832 356.708 115.832H352.904C351.08 84.5316 337.37 55.1097 314.577 33.5801C291.784 12.0504 261.629 0.038659 230.276 0H122.84C90.2719 0.0359975 59.0479 12.9896 36.0188 36.0188C12.9896 59.0479 0.0359975 90.2719 0 122.84V468.544C3.91231e-08 470.401 0.737496 472.181 2.05025 473.494C3.36301 474.806 5.14348 475.544 7 475.544C8.85652 475.544 10.637 474.806 11.9497 473.494C13.2625 472.181 14 470.401 14 468.544V122.84C14.0328 93.9839 25.5104 66.3191 45.9147 45.9147C66.3191 25.5104 93.9839 14.0328 122.84 14H230.276C257.918 14.0362 284.512 24.5758 304.675 43.4845C324.837 62.3932 337.06 88.2576 338.868 115.84H308.172C306.407 96.3913 297.44 78.3036 283.029 65.1237C268.619 51.9439 249.805 44.6228 230.276 44.596H122.84C102.095 44.6182 82.2057 52.8688 67.5363 67.5374C52.8669 82.2061 44.6153 102.095 44.592 122.84V468.544C44.592 470.401 45.3295 472.181 46.6423 473.494C47.955 474.806 49.7355 475.544 51.592 475.544C53.4485 475.544 55.229 474.806 56.5417 473.494C57.8545 472.181 58.592 470.401 58.592 468.544V449.176H91.308V468.544C91.308 470.401 92.0455 472.181 93.3582 473.494C94.671 474.806 96.4515 475.544 98.308 475.544C100.165 475.544 101.945 474.806 103.258 473.494C104.571 472.181 105.308 470.401 105.308 468.544V387.544C105.308 385.688 104.571 383.907 103.258 382.594C101.945 381.282 100.165 380.544 98.308 380.544C96.4515 380.544 94.671 381.282 93.3582 382.594C92.0455 383.907 91.308 385.688 91.308 387.544V406.916H58.572V122.84C58.5911 105.803 65.369 89.4699 77.4182 77.4252C89.4673 65.3806 105.803 58.6087 122.84 58.596H230.276C246.095 58.6169 261.352 64.4665 273.13 75.0266C284.909 85.5868 292.383 100.117 294.124 115.84H290.924C289.068 115.84 287.287 116.578 285.974 117.89C284.661 119.203 283.924 120.983 283.924 122.84V151.64C257.81 159.821 234.825 175.798 218.057 197.424C201.289 219.051 191.542 245.291 190.124 272.62C185.235 272.98 180.661 275.172 177.319 278.759C173.976 282.345 172.111 287.061 172.096 291.964V322.992C172.096 324.849 172.833 326.629 174.146 327.942C175.459 329.254 177.239 329.992 179.096 329.992H468.544C470.401 329.992 472.181 329.254 473.494 327.942C474.806 326.629 475.544 324.849 475.544 322.992V291.964C475.53 287.061 473.665 282.344 470.322 278.758C466.98 275.171 462.406 272.979 457.516 272.62ZM91.308 420.916V435.176H58.572V420.916H91.308ZM349.708 129.84V149.888H297.932V129.84H349.708ZM291.968 163.888H355.672C379.8 170.567 401.233 184.627 416.968 204.1C432.704 223.572 441.951 247.48 443.416 272.472H204.216C205.682 247.479 214.931 223.571 230.667 204.098C246.404 184.626 267.839 170.566 291.968 163.888ZM461.544 315.992H186.096V291.964C186.098 290.508 186.677 289.112 187.707 288.083C188.736 287.053 190.132 286.474 191.588 286.472H456.048C457.505 286.473 458.901 287.052 459.932 288.082C460.962 289.111 461.542 290.507 461.544 291.964V315.992Z" fill="white"/>
<path d="M323.82 350.712C321.964 350.712 320.183 351.449 318.87 352.762C317.558 354.075 316.82 355.855 316.82 357.712V372.012C316.82 373.868 317.558 375.649 318.87 376.962C320.183 378.274 321.964 379.012 323.82 379.012C325.677 379.012 327.457 378.274 328.77 376.962C330.083 375.649 330.82 373.868 330.82 372.012V357.712C330.819 355.856 330.081 354.076 328.769 352.763C327.456 351.451 325.676 350.713 323.82 350.712Z" fill="white"/>
<path d="M323.82 447.244C321.964 447.244 320.183 447.981 318.87 449.294C317.558 450.607 316.82 452.387 316.82 454.244V468.544C316.82 470.4 317.558 472.181 318.87 473.494C320.183 474.806 321.964 475.544 323.82 475.544C325.677 475.544 327.457 474.806 328.77 473.494C330.083 472.181 330.82 470.4 330.82 468.544V454.244C330.819 452.388 330.081 450.608 328.769 449.295C327.456 447.983 325.676 447.245 323.82 447.244Z" fill="white"/>
<path d="M323.82 398.972C322.901 398.971 321.99 399.152 321.141 399.504C320.291 399.855 319.519 400.371 318.869 401.021C318.219 401.671 317.703 402.443 317.352 403.293C317 404.142 316.82 405.053 316.82 405.972V420.272C316.82 422.128 317.558 423.909 318.87 425.222C320.183 426.534 321.964 427.272 323.82 427.272C325.677 427.272 327.457 426.534 328.77 425.222C330.083 423.909 330.82 422.128 330.82 420.272V405.972C330.82 404.115 330.083 402.335 328.77 401.022C327.457 399.709 325.677 398.972 323.82 398.972Z" fill="white"/>
<path d="M432.696 369.616L428.872 355.84C428.375 354.051 427.188 352.533 425.571 351.619C423.954 350.705 422.041 350.471 420.252 350.968C418.463 351.465 416.944 352.653 416.031 354.269C415.117 355.886 414.883 357.799 415.38 359.588L419.204 373.364C419.614 374.838 420.496 376.137 421.713 377.063C422.931 377.989 424.418 378.491 425.948 378.492C426.582 378.491 427.213 378.405 427.824 378.236C429.613 377.738 431.131 376.551 432.044 374.935C432.958 373.318 433.192 371.405 432.696 369.616Z" fill="white"/>
<path d="M454.7 448.852C454.203 447.063 453.016 445.544 451.399 444.631C449.783 443.717 447.869 443.483 446.08 443.98C444.291 444.477 442.773 445.664 441.859 447.281C440.945 448.898 440.711 450.811 441.208 452.6L445.032 466.376C445.442 467.85 446.324 469.149 447.541 470.075C448.759 471 450.246 471.503 451.776 471.504C452.41 471.503 453.041 471.417 453.652 471.248C455.441 470.75 456.959 469.563 457.872 467.947C458.786 466.33 459.02 464.417 458.524 462.628L454.7 448.852Z" fill="white"/>
<path d="M445.612 416.124L441.772 402.348C441.526 401.462 441.108 400.633 440.542 399.909C439.976 399.184 439.273 398.579 438.473 398.126C437.672 397.673 436.791 397.383 435.878 397.271C434.966 397.159 434.04 397.228 433.154 397.474C432.268 397.72 431.439 398.138 430.715 398.704C429.991 399.27 429.385 399.973 428.932 400.773C428.48 401.574 428.189 402.455 428.077 403.368C427.965 404.28 428.034 405.206 428.28 406.092L432.104 419.868C432.513 421.342 433.393 422.642 434.61 423.568C435.827 424.495 437.314 424.998 438.844 425C439.478 425 440.11 424.912 440.72 424.74C441.608 424.497 442.439 424.08 443.165 423.515C443.892 422.95 444.5 422.248 444.954 421.447C445.409 420.647 445.701 419.765 445.813 418.851C445.926 417.938 445.858 417.011 445.612 416.124Z" fill="white"/>
<path d="M375.956 378.844C376.868 378.728 377.748 378.433 378.546 377.977C379.344 377.521 380.044 376.912 380.607 376.185C381.17 375.458 381.584 374.628 381.826 373.741C382.067 372.854 382.132 371.928 382.016 371.016L380.216 356.832C380.107 355.915 379.817 355.028 379.363 354.223C378.91 353.418 378.301 352.711 377.573 352.143C376.845 351.574 376.012 351.155 375.121 350.911C374.23 350.666 373.3 350.6 372.383 350.716C371.467 350.832 370.582 351.129 369.781 351.589C368.98 352.049 368.277 352.662 367.715 353.395C367.152 354.128 366.739 354.964 366.501 355.857C366.263 356.75 366.204 357.68 366.328 358.596L368.128 372.78C368.343 374.469 369.165 376.021 370.442 377.148C371.718 378.274 373.362 378.897 375.064 378.9C375.362 378.899 375.66 378.88 375.956 378.844Z" fill="white"/>
<path d="M392.36 452.596C392.254 451.676 391.967 450.786 391.515 449.978C391.063 449.17 390.455 448.46 389.726 447.888C388.997 447.317 388.162 446.895 387.27 446.649C386.377 446.402 385.445 446.335 384.526 446.452C383.607 446.568 382.721 446.866 381.918 447.327C381.115 447.789 380.412 448.405 379.849 449.14C379.286 449.875 378.874 450.715 378.638 451.61C378.401 452.505 378.345 453.439 378.472 454.356L380.272 468.544C380.487 470.233 381.31 471.786 382.586 472.912C383.863 474.038 385.506 474.661 387.208 474.664C387.506 474.664 387.804 474.644 388.1 474.604C389.942 474.371 391.615 473.415 392.752 471.948C393.89 470.481 394.397 468.622 394.164 466.78L392.36 452.596Z" fill="white"/>
<path d="M382.02 426.728C383.861 426.493 385.535 425.538 386.672 424.071C387.81 422.604 388.319 420.746 388.088 418.904L386.292 404.716C386.176 403.804 385.882 402.923 385.427 402.125C384.971 401.326 384.362 400.625 383.635 400.062C382.909 399.499 382.078 399.084 381.191 398.842C380.304 398.6 379.378 398.534 378.466 398.65C377.554 398.766 376.673 399.06 375.875 399.516C375.076 399.971 374.375 400.58 373.812 401.307C373.249 402.033 372.834 402.864 372.592 403.751C372.35 404.638 372.284 405.564 372.4 406.476L374.196 420.66C374.412 422.349 375.235 423.902 376.512 425.028C377.79 426.154 379.433 426.777 381.136 426.78C381.431 426.781 381.727 426.763 382.02 426.728Z" fill="white"/>
<path d="M227.372 350.972C225.583 350.476 223.67 350.71 222.053 351.624C220.437 352.537 219.249 354.055 218.752 355.844L214.924 369.62C214.677 370.506 214.608 371.432 214.72 372.344C214.831 373.257 215.122 374.139 215.574 374.939C216.026 375.74 216.632 376.443 217.357 377.01C218.081 377.576 218.91 377.994 219.796 378.24C220.407 378.409 221.038 378.495 221.672 378.496C223.204 378.499 224.695 377.999 225.916 377.074C227.137 376.148 228.021 374.848 228.432 373.372L232.26 359.596C232.506 358.709 232.575 357.782 232.462 356.868C232.349 355.954 232.058 355.071 231.604 354.27C231.15 353.469 230.542 352.766 229.816 352.2C229.09 351.634 228.259 351.217 227.372 350.972Z" fill="white"/>
<path d="M201.56 443.98C200.674 443.734 199.748 443.664 198.835 443.776C197.923 443.887 197.041 444.178 196.24 444.63C195.44 445.083 194.737 445.688 194.17 446.413C193.604 447.137 193.186 447.966 192.94 448.852L189.112 462.628C188.616 464.417 188.85 466.33 189.763 467.946C190.677 469.563 192.195 470.75 193.984 471.248C194.595 471.417 195.226 471.503 195.86 471.504C197.39 471.503 198.877 471.001 200.095 470.075C201.313 469.149 202.194 467.85 202.604 466.376L206.432 452.6C206.678 451.714 206.747 450.788 206.636 449.876C206.524 448.963 206.234 448.081 205.782 447.281C205.329 446.48 204.723 445.777 203.999 445.21C203.275 444.644 202.446 444.226 201.56 443.98Z" fill="white"/>
<path d="M214.476 397.476C213.59 397.229 212.664 397.158 211.75 397.269C210.837 397.38 209.954 397.671 209.153 398.123C208.352 398.576 207.648 399.182 207.082 399.907C206.515 400.632 206.097 401.461 205.852 402.348L202.024 416.124C201.778 417.01 201.709 417.936 201.821 418.848C201.933 419.761 202.224 420.642 202.676 421.442C203.129 422.243 203.735 422.946 204.459 423.512C205.183 424.078 206.012 424.496 206.898 424.742C207.784 424.988 208.71 425.057 209.622 424.945C210.535 424.833 211.416 424.542 212.216 424.09C213.017 423.637 213.72 423.031 214.286 422.307C214.852 421.583 215.27 420.754 215.516 419.868L219.348 406.092C219.843 404.303 219.608 402.391 218.695 400.776C217.781 399.161 216.264 397.974 214.476 397.476Z" fill="white"/>
<path d="M275.244 350.768C273.402 350.539 271.545 351.049 270.079 352.186C268.613 353.324 267.656 354.995 267.42 356.836L265.624 371.02C265.392 372.861 265.9 374.72 267.037 376.187C268.174 377.654 269.847 378.609 271.688 378.844C271.983 378.88 272.279 378.899 272.576 378.9C274.279 378.898 275.922 378.275 277.199 377.149C278.475 376.022 279.298 374.469 279.512 372.78L281.312 358.592C281.543 356.75 281.034 354.892 279.896 353.425C278.758 351.958 277.085 351.002 275.244 350.768Z" fill="white"/>
<path d="M263.1 446.532C261.259 446.306 259.403 446.818 257.938 447.954C256.472 449.091 255.515 450.761 255.276 452.6L253.48 466.784C253.248 468.625 253.756 470.484 254.893 471.951C256.03 473.418 257.703 474.373 259.544 474.608C259.838 474.644 260.135 474.663 260.432 474.664C262.135 474.662 263.779 474.039 265.056 472.911C266.333 471.784 267.155 470.23 267.368 468.54L269.168 454.356C269.4 452.514 268.891 450.655 267.753 449.188C266.616 447.721 264.942 446.765 263.1 446.532Z" fill="white"/>
<path d="M269.18 398.652C268.267 398.53 267.338 398.59 266.449 398.83C265.559 399.069 264.726 399.483 263.997 400.047C263.268 400.611 262.659 401.315 262.204 402.116C261.75 402.917 261.459 403.801 261.348 404.716L259.548 418.9C259.315 420.742 259.823 422.6 260.96 424.068C262.097 425.535 263.771 426.49 265.612 426.724C265.908 426.762 266.206 426.781 266.504 426.78C268.206 426.778 269.849 426.156 271.126 425.03C272.403 423.905 273.225 422.352 273.44 420.664L275.24 406.476C275.472 404.635 274.965 402.777 273.829 401.31C272.692 399.844 271.021 398.887 269.18 398.652Z" fill="white"/>
</svg>
