<svg width="683" height="683" viewBox="0 0 683 683" fill="none" xmlns="http://www.w3.org/2000/svg">
<g clip-path="url(#clip0_109_131)">
<mask id="mask0_109_131" style="mask-type:luminance" maskUnits="userSpaceOnUse" x="0" y="0" width="683" height="683">
<path d="M0 -0.00012207H682.667V682.667H0V-0.00012207Z" fill="white"/>
</mask>
<g mask="url(#mask0_109_131)">
<path d="M260.521 356.889V353.267C260.521 336.067 276.428 323.272 293.222 326.963L442.512 359.692C452.425 361.873 460.276 369.429 462.809 379.261L463.268 381.013" stroke="#FBFBFB" stroke-width="20" stroke-miterlimit="10" stroke-linecap="round" stroke-linejoin="round"/>
<path d="M167.534 332.746L173.12 331.279C178.293 329.934 183.746 330.161 188.8 331.906L286.268 365.867C295.334 369.026 302.041 376.774 303.868 386.201L317.733 458.186" stroke="#FBFBFB" stroke-width="20" stroke-miterlimit="10" stroke-linecap="round" stroke-linejoin="round"/>
<path d="M109.214 473.934L94.3588 416C93.7868 413.827 93.5068 411.572 93.5068 409.32V372.906C93.5068 360.667 101.774 349.934 113.627 346.84L122.374 344.547" stroke="#FBFBFB" stroke-width="20" stroke-miterlimit="10" stroke-linecap="round" stroke-linejoin="round"/>
<path d="M394.455 450.499L403.641 412.004C405.917 402.47 413.191 394.926 422.632 392.3L533.036 361.632C544.712 358.399 557.117 363.342 563.34 373.74L585.321 410.36C587.827 414.55 589.16 419.331 589.16 424.22V461.206" stroke="#FBFBFB" stroke-width="20" stroke-miterlimit="10" stroke-linecap="round" stroke-linejoin="round"/>
<path d="M451.913 543.003L472.152 496.952C474.654 491.256 479.052 486.602 484.597 483.782L542.752 454.195C549.177 450.924 556.645 450.367 563.485 452.647L606.099 466.854C615.565 470.008 622.51 478.138 624.151 487.979L638.995 577.038" stroke="#FBFBFB" stroke-width="20" stroke-miterlimit="10" stroke-linecap="round" stroke-linejoin="round"/>
<path d="M158.227 577.04H23.4667C16.0267 577.04 10 583.067 10 590.507V617.44C10 624.88 16.0267 630.906 23.4667 630.906H572.013" stroke="#FBFBFB" stroke-width="20" stroke-miterlimit="10" stroke-linecap="round" stroke-linejoin="round"/>
<path d="M204.894 577.04H659.2C666.642 577.04 672.667 583.067 672.667 590.507V617.44C672.667 624.88 666.642 630.906 659.2 630.906H618.68" stroke="#FBFBFB" stroke-width="20" stroke-miterlimit="10" stroke-linecap="round" stroke-linejoin="round"/>
<path d="M277.222 505.208L151.707 465.219C146.271 463.486 140.424 463.524 135.012 465.33L87.359 481.214C79.355 483.882 73.063 490.146 70.359 498.138L43.6724 577.038" stroke="#FBFBFB" stroke-width="20" stroke-miterlimit="10" stroke-linecap="round" stroke-linejoin="round"/>
<path d="M260.521 577.038L283.09 479.99C285.702 468.758 295.173 460.435 306.648 459.287L400.302 449.922C413.021 448.65 424.882 456.491 428.694 468.69L462.553 577.038" stroke="#FBFBFB" stroke-width="20" stroke-miterlimit="10" stroke-linecap="round" stroke-linejoin="round"/>
<path d="M349.414 135.261C349.414 146.031 333.253 146.031 333.253 156.802C333.253 167.577 349.414 167.577 349.414 178.353C349.414 189.127 333.253 189.127 333.253 199.903C333.253 210.679 349.414 210.679 349.414 221.457C349.414 232.234 333.253 232.234 333.253 243.011" stroke="#FF9E0C" stroke-width="20" stroke-miterlimit="10" stroke-linecap="round" stroke-linejoin="round"/>
<path d="M438.309 51.7542C438.309 62.5248 422.146 62.5248 422.146 73.2955C422.146 84.0702 438.309 84.0702 438.309 94.8448C438.309 105.621 422.146 105.621 422.146 116.396" stroke="#FF9E0C" stroke-width="20" stroke-miterlimit="10" stroke-linecap="round" stroke-linejoin="round"/>
<path d="M265.908 51.7542C265.908 62.5248 249.745 62.5248 249.745 73.2955C249.745 84.0702 265.908 84.0702 265.908 94.8448C265.908 105.621 249.745 105.621 249.745 116.396" stroke="#FF9E0C" stroke-width="20" stroke-miterlimit="10" stroke-linecap="round" stroke-linejoin="round"/>
<path d="M493.531 175.667C493.531 186.437 477.369 186.437 477.369 197.208C477.369 207.984 493.531 207.984 493.531 218.759C493.531 229.533 477.369 229.533 477.369 240.309C477.369 251.085 493.531 251.085 493.531 261.863C493.531 272.64 477.369 272.64 477.369 283.417" stroke="#FF9E0C" stroke-width="20" stroke-miterlimit="10" stroke-linecap="round" stroke-linejoin="round"/>
<path d="M205.298 175.667C205.298 186.437 189.136 186.437 189.136 197.208C189.136 207.984 205.298 207.984 205.298 218.759C205.298 229.533 189.136 229.533 189.136 240.309C189.136 251.085 205.298 251.085 205.298 261.863C205.298 272.64 189.136 272.64 189.136 283.417" stroke="#FF9E0C" stroke-width="20" stroke-miterlimit="10" stroke-linecap="round" stroke-linejoin="round"/>
</g>
</g>
<defs>
<clipPath id="clip0_109_131">
<rect width="682.667" height="682.667" fill="white"/>
</clipPath>
</defs>
</svg>
