<svg width="512" height="512" viewBox="0 0 512 512" fill="none" xmlns="http://www.w3.org/2000/svg">
<g clip-path="url(#clip0_109_166)">
<path d="M344.678 39.3982C344.333 39.3568 343.985 39.3369 343.637 39.3385H343.552C339.035 39.3792 335.333 42.9327 335.106 47.444C334.88 51.9554 338.209 55.8615 342.699 56.3539C442.641 68.6931 494.933 99.3278 494.933 123.221C494.032 131.731 489.598 139.471 482.714 144.554C470.656 117.248 422.733 95.2489 349.244 84.3945C346.197 83.8794 343.109 85.0518 341.172 87.4596C339.235 89.8673 338.751 93.1342 339.907 96.0001C341.063 98.866 343.678 100.883 346.743 101.273C425.25 112.862 463.65 136.26 468.241 154.777C426.368 179.49 344.115 195.328 256 195.328C167.885 195.328 85.632 179.49 43.7333 154.777C48.2987 135.885 88.2859 111.94 170.214 100.522C173.31 100.192 175.979 98.2017 177.18 95.3298C178.381 92.458 177.923 89.1601 175.985 86.7243C174.047 84.2884 170.936 83.1013 167.868 83.6265C107.563 92.0233 43.6651 112.153 29.2608 144.546C22.3857 139.462 17.9614 131.725 17.0667 123.221C17.0667 100.531 63.4539 70.0841 165.282 56.8489C169.957 56.2409 173.254 51.9581 172.646 47.283C172.038 42.6079 167.756 39.3108 163.081 39.9187C84.2411 50.1758 0 77.4398 0 123.221V175.445C0.16253 184.163 3.15779 192.592 8.53333 199.458V347.085C3.20893 353.821 0.214508 362.104 0 370.688V422.912C0 453.896 38.9461 480.085 109.67 496.589C157.71 507.225 206.798 512.395 256 512C305.199 512.395 354.284 507.226 402.321 496.589C473.054 480.06 512 453.896 512 422.912V370.688C511.789 362.098 508.795 353.809 503.467 347.068V199.441C508.842 192.575 511.837 184.146 512 175.428V123.221C512 76.6291 425.566 49.3737 344.678 39.3982ZM30.1739 166.57C73.8133 194.833 160.341 212.394 256 212.394C351.659 212.394 438.187 194.833 481.809 166.579C486.447 163.621 490.836 160.291 494.933 156.621V175.445C494.933 205.747 427.802 225.638 398.43 232.508C351.669 242.847 303.889 247.865 256 247.466C191.531 247.466 71.7739 237.849 23.04 190.336C19.4288 186.187 17.3241 180.94 17.0667 175.445V156.621C21.1561 160.29 25.5399 163.618 30.1739 166.57ZM486.4 348.45C480.264 358.35 471.365 366.237 460.8 371.14V230.152C469.786 226.197 478.36 221.366 486.4 215.731V348.45ZM409.6 390.716V247.304C421.144 244.453 432.537 241.018 443.733 237.013V379.298C432.605 383.813 421.205 387.627 409.6 390.716ZM256 408.636C247.27 408.636 238.763 408.465 230.4 408.183V264.064C238.865 264.337 247.39 264.533 256 264.533C264.61 264.533 273.135 264.337 281.6 264.064V408.209C273.237 408.491 264.73 408.661 256 408.661V408.636ZM170.667 403.661V259.601C184.508 261.239 198.73 262.477 213.333 263.313V407.441C198.409 406.596 184.158 405.333 170.667 403.686V403.661ZM25.6 348.604V215.731C33.6366 221.371 42.2117 226.202 51.2 230.152V371.2C40.6636 366.298 31.7722 358.45 25.6 348.604ZM68.2667 237.013C79.4643 241.017 90.8565 244.455 102.4 247.313V390.724C90.7925 387.633 79.392 383.811 68.2667 379.281V237.013ZM119.467 251.247C130.423 253.574 141.801 255.604 153.6 257.34V401.322C141.488 399.479 130.111 397.352 119.467 394.94V251.247ZM298.667 263.313C313.253 262.505 327.475 261.268 341.333 259.601V403.678C327.834 405.316 313.611 406.568 298.667 407.432V263.313ZM358.4 257.34C370.187 255.633 381.565 253.599 392.533 251.238V394.931C381.884 397.332 370.506 399.459 358.4 401.314V257.34ZM494.933 422.886C494.933 444.177 457.958 466.039 398.43 479.949C351.67 490.297 303.89 495.324 256 494.933C208.108 495.332 160.325 490.313 113.562 479.974C54.0416 466.065 17.0667 444.203 17.0667 422.912V370.688C17.0712 369.317 17.2315 367.952 17.5445 366.617C59.7931 413.867 191.343 425.728 256 425.728C324.164 425.728 453.257 412.68 494.456 366.617C494.769 367.952 494.929 369.317 494.933 370.688V422.886Z" fill="white"/>
<path d="M465.203 404.096C422.084 427.964 341.914 442.795 256 442.795C170.086 442.795 89.9158 427.964 46.7969 404.096C42.6802 401.877 37.5446 403.385 35.2811 407.477C33.0175 411.57 34.4693 416.721 38.5366 419.029C84.7275 444.587 166.016 459.861 256 459.861C345.984 459.861 427.273 444.587 473.464 419.029C476.167 417.572 477.879 414.775 477.946 411.705C478.014 408.635 476.426 405.766 473.79 404.191C471.153 402.617 467.874 402.58 465.203 404.096Z" fill="white"/>
<path d="M187.733 122.308C187.613 132.542 191.257 142.464 197.973 150.187C199.803 152.626 202.794 153.903 205.821 153.539C208.848 153.174 211.45 151.222 212.647 148.419C213.845 145.615 213.456 142.386 211.627 139.947C207.174 135.166 204.73 128.857 204.8 122.325C204.753 115.711 207.245 109.331 211.763 104.499C218.387 96.7614 221.977 86.8826 221.867 76.6976C221.974 66.4942 218.33 56.6068 211.627 48.9131C207.177 44.131 204.734 37.8233 204.8 31.2917C204.726 24.7537 207.17 18.4378 211.627 13.6533C214.454 9.88308 213.69 4.53438 209.92 1.70668C206.15 -1.12102 200.801 -0.356917 197.973 3.41335C191.257 11.1363 187.613 21.0577 187.733 31.2917C187.613 41.5284 191.257 51.4527 197.973 59.1787C202.435 63.9121 204.882 70.1937 204.8 76.6976C204.877 83.2615 202.434 89.605 197.973 94.4213C191.257 102.147 187.613 112.072 187.733 122.308Z" fill="white"/>
<path d="M238.934 122.308C238.813 132.542 242.458 142.464 249.174 150.187C251.003 152.626 253.994 153.904 257.021 153.539C260.048 153.174 262.65 151.222 263.848 148.419C265.045 145.615 264.656 142.386 262.827 139.947C258.375 135.167 255.93 128.858 256 122.325C255.953 115.711 258.446 109.331 262.963 104.499C269.587 96.7615 273.177 86.8827 273.067 76.6977C273.174 66.4943 269.53 56.6069 262.827 48.9132C258.378 44.1311 255.934 37.8234 256 31.2919C255.926 24.7538 258.37 18.438 262.827 13.6535C264.656 11.2145 265.045 7.985 263.848 5.1814C262.65 2.3778 260.048 0.426066 257.021 0.0613987C253.994 -0.303268 251.003 0.974532 249.174 3.41347C242.458 11.1364 238.813 21.0579 238.934 31.2919C238.813 41.5285 242.457 51.4528 249.174 59.1788C253.635 63.9122 256.083 70.1938 256 76.6977C256.077 83.2617 253.634 89.6051 249.174 94.4215C242.457 102.147 238.813 112.072 238.934 122.308Z" fill="white"/>
<path d="M290.133 122.308C290.013 132.542 293.657 142.464 300.373 150.187C302.202 152.626 305.194 153.904 308.221 153.539C311.247 153.174 313.85 151.222 315.047 148.419C316.245 145.615 315.856 142.386 314.027 139.947C309.574 135.167 307.13 128.858 307.2 122.325C307.153 115.711 309.645 109.331 314.163 104.499C320.787 96.7615 324.377 86.8827 324.267 76.6977C324.373 66.4943 320.729 56.6069 314.027 48.9132C309.577 44.1311 307.134 37.8234 307.2 31.2919C307.126 24.7538 309.57 18.438 314.027 13.6535C315.856 11.2145 316.245 7.985 315.047 5.1814C313.85 2.3778 311.247 0.426066 308.221 0.0613987C305.194 -0.303268 302.202 0.974533 300.373 3.41347C293.657 11.1364 290.013 21.0579 290.133 31.2919C290.012 41.5285 293.657 51.4528 300.373 59.1788C304.835 63.9122 307.282 70.1938 307.2 76.6977C307.277 83.2617 304.834 89.6051 300.373 94.4215C293.657 102.147 290.012 112.072 290.133 122.308Z" fill="white"/>
<path d="M136.533 136.533C141.246 136.533 145.067 132.713 145.067 128C145.067 123.287 141.246 119.467 136.533 119.467C131.821 119.467 128 123.287 128 128C128 132.713 131.821 136.533 136.533 136.533Z" fill="white"/>
<path d="M110.933 162.133C115.646 162.133 119.467 158.313 119.467 153.6C119.467 148.887 115.646 145.066 110.933 145.066C106.22 145.066 102.4 148.887 102.4 153.6C102.4 158.313 106.22 162.133 110.933 162.133Z" fill="white"/>
<path d="M162.133 162.133C166.846 162.133 170.667 158.313 170.667 153.6C170.667 148.887 166.846 145.066 162.133 145.066C157.421 145.066 153.6 148.887 153.6 153.6C153.6 158.313 157.421 162.133 162.133 162.133Z" fill="white"/>
<path d="M375.467 136.533C380.18 136.533 384 132.713 384 128C384 123.287 380.18 119.467 375.467 119.467C370.754 119.467 366.933 123.287 366.933 128C366.933 132.713 370.754 136.533 375.467 136.533Z" fill="white"/>
<path d="M349.867 162.133C354.579 162.133 358.4 158.313 358.4 153.6C358.4 148.887 354.579 145.066 349.867 145.066C345.154 145.066 341.333 148.887 341.333 153.6C341.333 158.313 345.154 162.133 349.867 162.133Z" fill="white"/>
<path d="M401.067 162.133C405.779 162.133 409.6 158.313 409.6 153.6C409.6 148.887 405.779 145.066 401.067 145.066C396.354 145.066 392.533 148.887 392.533 153.6C392.533 158.313 396.354 162.133 401.067 162.133Z" fill="white"/>
</g>
<defs>
<clipPath id="clip0_109_166">
<rect width="512" height="512" fill="white"/>
</clipPath>
</defs>
</svg>
