<svg width="512" height="512" viewBox="0 0 512 512" fill="none" xmlns="http://www.w3.org/2000/svg">
<path d="M134.15 265.552L110.166 302.675C96.4317 323.933 111.692 351.96 137 351.96C162.309 351.96 177.568 323.933 163.834 302.675L139.85 265.552C138.513 263.483 135.487 263.483 134.15 265.552Z" fill="#99E6FC"/>
<path d="M163.834 302.674L156.388 291.149C157.988 309.572 143.728 327.458 123.055 327.458C116.266 327.458 110.176 325.519 105.104 322.275C106.28 337.976 119.125 351.958 137 351.958C162.309 351.959 177.568 323.932 163.834 302.674Z" fill="#62DBFB"/>
<path d="M370.15 397.593L346.166 434.716C332.432 455.973 347.691 484 373 484C398.309 484 413.568 455.973 399.834 434.715L375.85 397.592C374.513 395.524 371.487 395.524 370.15 397.593Z" fill="#99E6FC"/>
<path d="M399.834 434.715L392.388 423.19C393.988 441.613 379.728 459.499 359.055 459.499C352.266 459.499 346.176 457.56 341.104 454.316C342.281 470.018 355.126 484 373 484C398.309 484 413.568 455.973 399.834 434.715Z" fill="#62DBFB"/>
<path d="M294.55 87.052L270.566 124.175C256.832 145.433 272.092 173.46 297.4 173.46C322.709 173.46 337.968 145.433 324.234 124.175L300.25 87.052C298.913 84.983 295.887 84.983 294.55 87.052Z" fill="#99E6FC"/>
<path d="M324.233 124.174L316.787 112.649C318.387 131.072 304.127 148.958 283.454 148.958C276.665 148.958 270.575 147.019 265.503 143.775C266.679 159.476 279.524 173.458 297.399 173.458C322.708 173.459 337.967 145.432 324.233 124.174Z" fill="#62DBFB"/>
<path d="M419.677 252.558C463.112 252.558 498.226 216.928 497.386 173.301C496.582 131.546 462.288 97.565 420.528 97.116C414.975 97.056 409.555 97.583 404.325 98.632C402.304 99.038 400.452 97.382 400.721 95.338C401.158 92.028 401.39 88.654 401.39 85.224C401.39 42.298 366.592 7.501 323.667 7.501C296.359 7.501 272.357 21.594 258.496 42.894C257.328 44.689 254.676 44.689 253.508 42.894C239.645 21.593 215.643 7.5 188.335 7.5C167.094 7.5 147.851 16.03 133.822 29.84" stroke="#FFFEFE" stroke-width="15" stroke-miterlimit="10" stroke-linecap="round" stroke-linejoin="round"/>
<path d="M115.006 59.449C112.17 67.517 110.611 76.186 110.611 85.223C110.611 88.653 110.843 92.027 111.28 95.337C111.55 97.38 109.697 99.037 107.676 98.631C102.446 97.581 97.0259 97.055 91.4729 97.115C49.7119 97.564 15.4189 131.545 14.6149 173.3C13.7739 216.927 48.8879 252.557 92.3239 252.557" stroke="#FFFEFE" stroke-width="15" stroke-miterlimit="10" stroke-linecap="round" stroke-linejoin="round"/>
<path d="M336.324 234.23C366.271 234.23 390.288 208.839 388.021 178.411C386.098 152.599 364.948 131.96 339.1 130.611C335.188 130.407 331.372 130.658 327.682 131.278C334.525 151.177 319.968 173.458 297.401 173.458C275 173.458 260.489 151.504 266.969 131.718C263.432 130.955 259.766 130.538 256.001 130.538C241.014 130.538 227.516 136.9 218.051 147.068C216.85 148.359 214.833 148.363 213.632 147.072C203.586 136.278 188.995 129.771 172.902 130.61C147.053 131.958 125.904 152.597 123.981 178.41C121.714 208.838 145.731 234.229 175.678 234.229" stroke="#FFFEFE" stroke-width="15" stroke-miterlimit="10" stroke-linecap="round" stroke-linejoin="round"/>
<path d="M209.03 211.761V320" stroke="#FFFEFE" stroke-width="15" stroke-miterlimit="10" stroke-linecap="round" stroke-linejoin="round"/>
<path d="M209.03 355V469.546" stroke="#FFFEFE" stroke-width="15" stroke-miterlimit="10" stroke-linecap="round" stroke-linejoin="round"/>
<path d="M256 235.081V504.5" stroke="#FFFEFE" stroke-width="15" stroke-miterlimit="10" stroke-linecap="round" stroke-linejoin="round"/>
<path d="M302.969 211.762V469.546" stroke="#FFFEFE" stroke-width="15" stroke-miterlimit="10" stroke-linecap="round" stroke-linejoin="round"/>
<path d="M149.407 401.971C140.528 391.106 127.027 384.167 111.901 384.167C85.1609 384.167 63.4849 405.844 63.4849 432.583C63.4849 459.323 85.1619 480.999 111.901 480.999" stroke="#FFFEFE" stroke-width="15" stroke-miterlimit="10" stroke-linecap="round" stroke-linejoin="round"/>
<path d="M419.552 394.084C436.602 386.592 448.515 369.565 448.515 349.747C448.515 343.637 447.372 337.798 445.307 332.415" stroke="#FFFEFE" stroke-width="15" stroke-miterlimit="10" stroke-linecap="round" stroke-linejoin="round"/>
<path d="M421.81 306.474C415.278 303.19 407.908 301.33 400.099 301.33C384.974 301.33 371.472 308.269 362.593 319.134" stroke="#FFFEFE" stroke-width="15" stroke-miterlimit="10" stroke-linecap="round" stroke-linejoin="round"/>
<path d="M134.15 265.552L110.166 302.675C96.4317 323.933 111.692 351.96 137 351.96C162.309 351.96 177.568 323.933 163.834 302.675L139.85 265.552C138.513 263.483 135.487 263.483 134.15 265.552Z" stroke="#FFFEFE" stroke-width="15" stroke-miterlimit="10" stroke-linecap="round" stroke-linejoin="round"/>
<path d="M370.15 397.593L346.166 434.716C332.432 455.973 347.691 484 373 484C398.309 484 413.568 455.973 399.834 434.715L375.85 397.592C374.513 395.524 371.487 395.524 370.15 397.593Z" stroke="#FFFEFE" stroke-width="15" stroke-miterlimit="10" stroke-linecap="round" stroke-linejoin="round"/>
<path d="M294.55 87.052L270.566 124.175C256.832 145.433 272.092 173.46 297.4 173.46C322.709 173.46 337.968 145.433 324.234 124.175L300.25 87.052C298.913 84.983 295.887 84.983 294.55 87.052Z" stroke="#FFFEFE" stroke-width="15" stroke-miterlimit="10" stroke-linecap="round" stroke-linejoin="round"/>
</svg>
