<svg width="512" height="258" viewBox="0 0 512 258" fill="none" xmlns="http://www.w3.org/2000/svg">
<path d="M487.016 177.476C489.79 173.156 491.264 168.13 491.264 162.996V134.1C493.613 128.497 494.619 122.421 494.2 116.36C499.563 113.555 504.056 109.337 507.194 104.162C510.332 98.9869 511.994 93.052 512 87C511.975 63.934 502.8 41.8199 486.49 25.5098C470.18 9.19962 448.066 0.0254101 425 0H87C63.934 0.0254101 41.8199 9.19962 25.5098 25.5098C9.19962 41.8199 0.0254101 63.934 0 87C0.00644059 93.052 1.66841 98.9869 4.80595 104.162C7.9435 109.337 12.437 113.555 17.8 116.36C17.3798 122.417 18.384 128.489 20.732 134.088V163C20.7318 168.134 22.2063 173.16 24.98 177.48C17.7681 179.643 11.4444 184.071 6.94531 190.108C2.44621 196.145 0.0109126 203.471 0 211C0.0137638 223.461 4.96996 235.408 13.7812 244.219C22.5924 253.03 34.539 257.986 47 258H465C477.461 257.986 489.408 253.03 498.219 244.219C507.03 235.408 511.986 223.461 512 211C511.99 203.47 509.554 196.143 505.054 190.105C500.554 184.066 494.229 179.638 487.016 177.476ZM34.736 163V151.432C41.2282 155.897 48.9207 158.29 56.8 158.296C60.8607 158.294 64.8961 157.657 68.76 156.408L98.912 146.72C103.902 145.104 109.274 145.104 114.264 146.72L144.424 156.408C152.196 158.924 160.564 158.924 168.336 156.408L171.592 155.364L192.932 175.996H47.732C44.2865 175.992 40.9834 174.621 38.5471 172.185C36.1108 169.749 34.7402 166.445 34.736 163ZM155.312 120.16H356.688L256 217.504L155.312 120.16ZM340.412 155.36L343.668 156.404C351.44 158.921 359.808 158.921 367.58 156.404L397.74 146.716C402.728 145.1 408.1 145.1 413.088 146.716L443.244 156.404C451.031 158.928 459.417 158.928 467.204 156.404C470.781 155.254 474.171 153.585 477.264 151.452V163C477.261 166.447 475.89 169.752 473.453 172.189C471.016 174.626 467.711 175.997 464.264 176H319.064L340.412 155.36ZM462.88 143.08C457.89 144.692 452.518 144.692 447.528 143.08L417.372 133.4C409.599 130.882 401.229 130.882 393.456 133.4L363.296 143.088C359.699 144.243 355.887 144.564 352.148 144.028L376.832 120.164H478.832C479.32 120.164 479.8 120.112 480.284 120.092C480.071 125.241 478.29 130.201 475.179 134.309C472.069 138.418 467.778 141.478 462.88 143.08ZM87 14.004H117V45.376C117 47.2325 117.738 49.013 119.05 50.3257C120.363 51.6385 122.143 52.376 124 52.376C125.857 52.376 127.637 51.6385 128.95 50.3257C130.263 49.013 131 47.2325 131 45.376V14.004H183V45.376C183 47.2325 183.737 49.013 185.05 50.3257C186.363 51.6385 188.143 52.376 190 52.376C191.857 52.376 193.637 51.6385 194.95 50.3257C196.263 49.013 197 47.2325 197 45.376V14.004H249V45.376C249 47.2325 249.737 49.013 251.05 50.3257C252.363 51.6385 254.143 52.376 256 52.376C257.857 52.376 259.637 51.6385 260.95 50.3257C262.262 49.013 263 47.2325 263 45.376V14.004H315V45.376C315 47.2325 315.738 49.013 317.05 50.3257C318.363 51.6385 320.143 52.376 322 52.376C323.857 52.376 325.637 51.6385 326.95 50.3257C328.262 49.013 329 47.2325 329 45.376V14.004H381V45.376C381 47.2325 381.738 49.013 383.05 50.3257C384.363 51.6385 386.143 52.376 388 52.376C389.857 52.376 391.637 51.6385 392.95 50.3257C394.262 49.013 395 47.2325 395 45.376V14.004H425C444.353 14.0262 462.908 21.7239 476.593 35.4083C490.278 49.0928 497.977 67.6467 498 87C497.994 92.0775 495.974 96.9452 492.383 100.535C488.793 104.126 483.925 106.146 478.848 106.152H33.152C28.0745 106.146 23.2068 104.126 19.6165 100.535C16.0262 96.9452 14.0064 92.0775 14 87C14.0233 67.6467 21.7219 49.0928 35.4072 35.4083C49.0924 21.7239 67.6467 14.0262 87 14.004ZM33.152 120.156H135.152L159.836 144.02C156.097 144.56 152.284 144.238 148.688 143.08L118.544 133.4C110.77 130.886 102.402 130.886 94.628 133.4L64.472 143.08C59.4678 144.7 54.0802 144.7 49.076 143.08C44.1831 141.475 39.897 138.414 36.7917 134.307C33.6863 130.199 31.9098 125.241 31.7 120.096C32.184 120.104 32.66 120.156 33.152 120.156ZM465 243.996H47C38.2515 243.986 29.8639 240.507 23.6774 234.321C17.4909 228.136 14.0106 219.749 14 211C14.0064 205.432 16.2209 200.095 20.1578 196.158C24.0947 192.221 29.4324 190.006 35 190H207.4L251.136 232.272C252.449 233.518 254.19 234.212 256 234.212C257.81 234.212 259.551 233.518 260.864 232.272L304.592 189.996H476.992C482.56 190.002 487.897 192.217 491.834 196.154C495.771 200.091 497.986 205.428 497.992 210.996C497.982 219.744 494.504 228.131 488.319 234.317C482.134 240.504 473.748 243.984 465 243.996Z" fill="white"/>
</svg>
