<svg width="512" height="275" viewBox="0 0 512 275" fill="none" xmlns="http://www.w3.org/2000/svg">
<path d="M485.086 96.8995H434.61C430.467 96.8995 427.11 100.257 427.11 104.4C427.11 108.543 430.467 111.901 434.61 111.901H485.086C491.655 111.901 497 117.045 497 123.367V140.437C497 146.759 491.655 151.902 485.086 151.902H133.695C133.561 151.9 132.336 151.839 132.031 151.857C128.564 152.076 125.178 150.845 122.758 148.481L18.427 46.5565C16.217 44.3975 15 41.5405 15 38.5105C15 35.4805 16.217 32.6235 18.427 30.4645L30.782 18.3945C35.462 13.8205 43.077 13.8225 47.756 18.3945L128.113 96.8985H123.984C119.842 96.8985 116.484 100.256 116.484 104.399C116.484 108.542 119.842 111.9 123.984 111.9H138.812V132.652C138.812 136.796 142.17 140.153 146.312 140.153C150.454 140.153 153.812 136.796 153.812 132.652V111.9H404.517C408.66 111.9 412.017 108.542 412.017 104.399C412.017 100.256 408.66 96.8985 404.517 96.8985H149.58L58.238 7.6635C47.779 -2.5555 30.76 -2.5535 20.301 7.6635L7.946 19.7335C2.822 24.7385 0 31.4075 0 38.5105C0 45.6135 2.822 52.2825 7.945 57.2875L53.975 102.255L34.11 144.305H31.768C24.956 144.305 19.414 149.798 19.414 156.548V181.346V194.48V262.758C19.414 269.509 24.956 275 31.768 275H60.889C67.701 275 73.243 269.508 73.243 262.758V206.721H104.734C108.876 206.721 112.234 203.364 112.234 199.221C112.234 195.077 108.876 191.719 104.734 191.719H34.414V181.346V159.305H112.336C112.35 159.305 112.363 159.303 112.377 159.303C117.699 164.448 124.982 167.175 132.459 166.855C132.867 166.881 133.276 166.902 133.692 166.902H485.087C485.176 166.902 485.264 166.895 485.353 166.894V186.562V191.721H133.691C129.549 191.721 126.191 195.078 126.191 199.221C126.191 203.364 129.549 206.722 133.691 206.722H229.086V262.759C229.086 269.51 234.628 275.001 241.44 275.001H270.561C277.373 275.001 282.915 269.509 282.915 262.759V206.722H446.524V262.759C446.524 269.51 452.066 275.001 458.878 275.001H487.999C494.811 275.001 500.353 269.509 500.353 262.759V194.48V186.562V162.217C507.384 157.437 512.001 149.459 512.001 140.437V123.367C512 108.772 499.927 96.8995 485.086 96.8995ZM58.242 206.722V260H34.414V206.722H58.242ZM50.7 144.305L65.327 113.345L97.018 144.305H50.7ZM267.914 260H244.086V206.722H267.914V260ZM485.351 260H461.523V206.722H485.351V260Z" fill="white"/>
</svg>
